<svg xml:space="preserve" style="enable-background:new 0 0 63 62;" viewBox="0 0 63 62" y="0px" x="0px" xmlns:xlink="http://www.w3.org/1999/xlink" xmlns="http://www.w3.org/2000/svg" id="Layer_1" version="1.1">
<style type="text/css">
	.st0{fill:#FFFFFF;}
</style>
<g>
	<circle r="2" cy="3.8" cx="4" class="st0"></circle>
	<circle r="2" cy="11.5" cx="4" class="st0"></circle>
	<circle r="2" cy="19.1" cx="4" class="st0"></circle>
	<circle r="2" cy="26.8" cx="4" class="st0"></circle>
	<circle r="2" cy="34.4" cx="4" class="st0"></circle>
	<circle r="2" cy="42.1" cx="4" class="st0"></circle>
	<circle r="2" cy="49.7" cx="4" class="st0"></circle>
	<circle r="2" cy="57.4" cx="4" class="st0"></circle>
</g>
<g>
	<circle r="2" cy="3.8" cx="11.7" class="st0"></circle>
	<circle r="2" cy="11.5" cx="11.7" class="st0"></circle>
	<circle r="2" cy="19.1" cx="11.7" class="st0"></circle>
	<circle r="2" cy="26.8" cx="11.7" class="st0"></circle>
	<circle r="2" cy="34.4" cx="11.7" class="st0"></circle>
	<circle r="2" cy="42.1" cx="11.7" class="st0"></circle>
	<circle r="2" cy="49.7" cx="11.7" class="st0"></circle>
	<circle r="2" cy="57.4" cx="11.7" class="st0"></circle>
</g>
<g>
	<circle r="2" cy="3.8" cx="19.3" class="st0"></circle>
	<circle r="2" cy="11.5" cx="19.3" class="st0"></circle>
	<circle r="2" cy="19.1" cx="19.3" class="st0"></circle>
	<circle r="2" cy="26.8" cx="19.3" class="st0"></circle>
	<circle r="2" cy="34.4" cx="19.3" class="st0"></circle>
	<circle r="2" cy="42.1" cx="19.3" class="st0"></circle>
	<circle r="2" cy="49.7" cx="19.3" class="st0"></circle>
	<circle r="2" cy="57.4" cx="19.3" class="st0"></circle>
</g>
<g>
	<circle r="2" cy="3.8" cx="27" class="st0"></circle>
	<circle r="2" cy="11.5" cx="27" class="st0"></circle>
	<circle r="2" cy="19.1" cx="27" class="st0"></circle>
	<circle r="2" cy="26.8" cx="27" class="st0"></circle>
	<circle r="2" cy="34.4" cx="27" class="st0"></circle>
	<circle r="2" cy="42.1" cx="27" class="st0"></circle>
	<circle r="2" cy="49.7" cx="27" class="st0"></circle>
	<circle r="2" cy="57.4" cx="27" class="st0"></circle>
</g>
<g>
	<circle r="2" cy="3.8" cx="34.6" class="st0"></circle>
	<circle r="2" cy="11.5" cx="34.6" class="st0"></circle>
	<circle r="2" cy="19.1" cx="34.6" class="st0"></circle>
	<circle r="2" cy="26.8" cx="34.6" class="st0"></circle>
	<circle r="2" cy="34.4" cx="34.6" class="st0"></circle>
	<circle r="2" cy="42.1" cx="34.6" class="st0"></circle>
	<circle r="2" cy="49.7" cx="34.6" class="st0"></circle>
	<circle r="2" cy="57.4" cx="34.6" class="st0"></circle>
</g>
<g>
	<circle r="2" cy="3.8" cx="42.3" class="st0"></circle>
	<circle r="2" cy="11.5" cx="42.3" class="st0"></circle>
	<circle r="2" cy="19.1" cx="42.3" class="st0"></circle>
	<circle r="2" cy="26.8" cx="42.3" class="st0"></circle>
	<circle r="2" cy="34.4" cx="42.3" class="st0"></circle>
	<circle r="2" cy="42.1" cx="42.3" class="st0"></circle>
	<circle r="2" cy="49.7" cx="42.3" class="st0"></circle>
	<circle r="2" cy="57.4" cx="42.3" class="st0"></circle>
</g>
<g>
	<circle r="2" cy="3.8" cx="49.9" class="st0"></circle>
	<circle r="2" cy="11.5" cx="49.9" class="st0"></circle>
	<circle r="2" cy="19.1" cx="49.9" class="st0"></circle>
	<circle r="2" cy="26.8" cx="49.9" class="st0"></circle>
	<circle r="2" cy="34.4" cx="49.9" class="st0"></circle>
	<circle r="2" cy="42.1" cx="49.9" class="st0"></circle>
	<circle r="2" cy="49.7" cx="49.9" class="st0"></circle>
	<circle r="2" cy="57.4" cx="49.9" class="st0"></circle>
</g>
<g>
	<circle r="2" cy="3.6" cx="57.5" class="st0"></circle>
	<circle r="2" cy="11.3" cx="57.5" class="st0"></circle>
	<circle r="2" cy="18.9" cx="57.5" class="st0"></circle>
	<circle r="2" cy="26.6" cx="57.5" class="st0"></circle>
	<circle r="2" cy="34.2" cx="57.5" class="st0"></circle>
	<circle r="2" cy="41.9" cx="57.5" class="st0"></circle>
	<circle r="2" cy="49.5" cx="57.5" class="st0"></circle>
	<circle r="2" cy="57.1" cx="57.5" class="st0"></circle>
</g>
</svg>