<svg xml:space="preserve" style="enable-background:new 0 0 291.5 94.8;" viewBox="0 0 291.5 94.8" y="0px" x="0px" xmlns:xlink="http://www.w3.org/1999/xlink" xmlns="http://www.w3.org/2000/svg" id="Layer_1" version="1.1">
<style type="text/css">
	.st0{fill:#FFFFFF;}
	.st1{fill:#FF7D9A;}
	.st2{fill:#FFE280;}
	.st3{fill:#FACEE2;}
	.st4{fill:#A8D6D0;}
	.st5{fill:#B4B6DA;}
	.st6{fill:#F9A77A;}
	.st7{fill:#CD9ECA;}
	.st8{fill:#FDCB11;}
	.st9{fill:#FCC1A2;}
	.st10{fill:#FFD4CB;}
	.st11{fill:#B9D5EA;}
</style>
<g>
	<g>
		<path d="M0.1,2.9C-1.3,26.2,16.2,44.3,36,53.6C58.2,64,83.7,67.7,107.9,65c12.3-1.4,24.1-4.5,35.7-8.6
			c11.8-4.2,23.7-9.2,36.3-10.6c10.5-1.2,21.9,0,31,5.8c9.9,6.4,13.3,18.1,20.9,26.6c14.4,16.1,38.6,20.9,58.3,12.5
			c3.5-1.5,0.5-6.7-3-5.2c-17.6,7.5-39.7,2.1-51.9-12.7c-6.8-8.1-10.1-18.3-18.8-24.9c-7.3-5.4-16.3-8-25.2-8.5
			c-22.4-1.5-42.5,10.2-63.6,15.8c-23.5,6.3-48.7,6-72-0.8C31.6,47.5,4.4,31.2,6.1,2.9C6.3-1,0.3-1,0.1,2.9L0.1,2.9z" class="st4"></path>
	</g>
</g>
</svg>